<?xml version="1.0" standalone="no"?>
<!DOCTYPE svg PUBLIC "-//W3C//DTD SVG 20010904//EN"
 "http://www.w3.org/TR/2001/REC-SVG-20010904/DTD/svg10.dtd">
<svg version="1.0" xmlns="http://www.w3.org/2000/svg"
 width="900.000000pt" height="900.000000pt" viewBox="0 0 900.000000 900.000000"
 preserveAspectRatio="xMidYMid meet">
<metadata>
Created by potrace 1.11, written by Peter Selinger 2001-2013
</metadata>
<g transform="translate(0.000000,900.000000) scale(0.100000,-0.100000)"
fill="#000000" stroke="none">
<path d="M5545 8994 c-135 -32 -290 -112 -463 -238 l-84 -61 28 -20 c97 -69
222 -216 266 -312 15 -34 43 -122 62 -195 80 -307 88 -434 42 -656 -3 -12 -8
-27 -12 -33 -16 -27 352 35 479 79 104 37 197 117 271 233 20 32 65 145 71
179 3 14 9 48 14 75 22 114 5 375 -35 528 -58 226 -196 373 -381 406 -57 11
-235 21 -258 15z"/>
<path d="M3719 8976 c-2 -2 -29 -6 -59 -10 -65 -7 -92 -11 -185 -31 -38 -8
-81 -17 -95 -19 -112 -23 -237 -71 -316 -123 -107 -70 -172 -163 -238 -344
-68 -186 -23 -377 163 -691 55 -94 111 -150 178 -180 48 -21 186 -62 243 -72
19 -3 46 -9 60 -12 39 -8 252 -13 248 -6 -2 4 -16 31 -31 61 -29 55 -63 150
-73 205 -10 54 -6 191 6 237 7 24 13 49 15 54 1 6 4 17 7 25 3 8 14 38 23 65
33 93 114 256 159 320 78 108 230 231 360 291 31 14 56 29 56 34 0 14 -72 66
-145 103 -116 60 -202 85 -311 92 -34 2 -63 2 -65 1z"/>
<path d="M4374 8614 c-112 -23 -240 -99 -346 -205 -54 -55 -77 -89 -122 -181
-79 -163 -107 -255 -107 -353 0 -224 112 -392 327 -490 43 -20 147 -70 229
-111 83 -41 167 -77 188 -81 45 -7 168 12 249 38 177 58 334 165 383 259 60
116 75 330 35 506 -7 27 -13 56 -15 64 -36 164 -84 264 -175 363 -87 93 -168
137 -310 167 -174 37 -249 42 -336 24z"/>
<path d="M3197 6928 c-93 -20 -158 -74 -285 -240 -136 -177 -205 -348 -218
-546 -4 -52 -20 -145 -35 -206 -37 -142 -66 -270 -72 -321 -2 -22 -14 -78 -26
-123 -14 -54 -24 -127 -27 -205 -2 -67 -7 -140 -10 -162 -10 -77 -13 -310 -5
-355 18 -91 25 -178 23 -290 0 -63 3 -146 9 -185 6 -38 12 -122 14 -185 7
-209 15 -365 20 -389 2 -12 7 -52 10 -89 3 -37 7 -74 10 -82 4 -15 13 -124 21
-250 9 -148 14 -216 19 -240 8 -44 15 -151 20 -302 4 -94 11 -160 20 -182 8
-19 17 -72 21 -118 3 -46 7 -85 9 -88 3 -5 9 -50 20 -165 2 -22 7 -85 11 -140
4 -63 13 -116 25 -144 21 -48 27 -95 34 -241 6 -139 41 -346 69 -415 28 -70
34 -99 41 -220 6 -99 11 -142 26 -195 5 -19 9 -52 9 -72 0 -60 22 -138 42
-149 11 -6 18 -21 18 -40 0 -30 40 -79 65 -79 14 0 31 30 50 90 l14 45 -3 -77
c-4 -83 3 -101 59 -153 35 -33 189 -135 203 -135 5 0 13 24 17 53 4 28 8 61
10 72 2 11 7 40 11 65 4 25 8 50 9 56 2 6 6 35 9 65 4 30 13 92 20 139 l14 85
-5 -135 c-7 -206 -7 -390 0 -397 10 -10 129 78 233 173 17 16 50 46 72 66 l40
36 -38 114 c-38 113 -44 152 -56 328 -3 52 -8 99 -11 103 -3 4 -7 61 -9 125
-10 303 -14 409 -18 432 -3 14 -12 84 -21 155 -24 200 -26 218 -30 245 -4 25
-27 212 -42 340 -10 83 -8 461 3 700 14 296 9 582 -12 749 -3 25 -18 118 -34
206 -45 251 -60 337 -66 380 -3 22 -9 56 -14 75 -19 74 -22 146 -23 465 0 362
7 524 28 635 3 14 7 45 11 70 3 25 7 61 10 80 3 19 7 94 9 165 5 190 12 250
41 339 55 172 177 291 359 349 44 15 140 37 222 52 16 2 43 9 61 14 18 5 35
10 37 11 49 9 65 14 65 21 0 16 -229 121 -294 135 -38 9 -240 43 -286 49 -25
3 -56 8 -70 10 -14 3 -47 7 -75 10 -27 2 -77 7 -110 10 -106 10 -229 12 -268
3z"/>
<path d="M5375 6881 c-33 -9 -104 -42 -158 -72 l-97 -56 25 -27 c141 -153 232
-376 271 -666 9 -71 11 -426 3 -510 -4 -36 -10 -108 -14 -160 -4 -52 -9 -108
-11 -125 -8 -55 -6 -159 5 -245 16 -119 21 -151 27 -185 3 -16 7 -147 10 -290
2 -143 6 -273 9 -290 16 -109 20 -185 20 -380 0 -191 -8 -373 -20 -448 -3 -19
-6 -47 -20 -172 -2 -16 -6 -68 -9 -115 -4 -47 -9 -125 -13 -175 -7 -97 -7
-336 -1 -695 3 -124 1 -241 -3 -260 -7 -32 -11 -67 -24 -210 -3 -25 -7 -86
-10 -137 -3 -58 -13 -113 -26 -149 -25 -66 -26 -76 -34 -244 -3 -69 -10 -150
-15 -180 -9 -55 -14 -88 -25 -185 -3 -27 -8 -59 -10 -70 -2 -11 -4 -32 -4 -47
-1 -21 -5 -25 -20 -21 -16 4 -20 -2 -26 -37 -6 -37 -3 -48 24 -87 17 -24 41
-72 53 -106 11 -34 39 -90 61 -125 l40 -63 18 40 c32 71 64 31 79 -99 1 -8 12
21 24 64 l22 79 26 -34 c38 -51 67 -112 79 -170 l11 -52 56 96 c31 53 58 94
60 92 3 -2 7 -30 9 -62 6 -90 12 -94 39 -29 13 33 24 65 24 71 0 6 10 20 23
32 40 36 65 71 91 125 16 33 51 78 96 121 51 49 70 74 71 95 1 15 3 36 4 47 1
11 3 28 3 38 1 10 7 15 13 11 7 -4 10 4 8 22 -1 16 1 54 4 84 4 30 8 100 11
155 4 110 17 158 40 149 10 -4 14 3 15 28 0 18 2 42 5 54 2 12 7 45 11 75 4
30 8 63 10 74 2 11 6 40 10 65 4 25 8 83 10 130 1 47 7 112 13 145 15 82 19
102 32 192 7 43 13 85 15 94 2 8 6 55 10 105 4 49 9 98 12 109 2 11 8 63 13
115 5 52 15 108 23 123 9 18 15 64 17 125 2 123 7 209 15 297 11 115 12 126
19 220 15 210 17 242 21 275 3 19 8 62 11 95 3 33 8 69 10 80 8 42 17 238 17
375 1 160 -7 262 -29 390 -8 47 -17 101 -20 120 -5 38 -20 120 -29 160 -70
334 -79 432 -60 635 13 132 15 165 22 285 11 193 6 379 -13 532 -7 64 -54 199
-97 282 -41 79 -138 209 -199 267 -87 81 -256 174 -378 206 -85 23 -233 25
-305 4z"/>
<path d="M4807 6644 c-1 -1 -27 -5 -57 -8 -71 -9 -143 -27 -316 -82 -78 -24
-195 -58 -260 -74 -266 -69 -373 -158 -437 -362 -36 -113 -34 -99 -52 -488 -2
-58 -6 -114 -9 -125 -2 -11 -7 -47 -10 -80 -4 -33 -9 -71 -11 -85 -7 -47 -19
-285 -19 -365 1 -153 17 -362 39 -485 3 -14 14 -88 25 -165 23 -159 27 -181
40 -250 5 -27 12 -72 15 -99 3 -27 8 -52 9 -55 4 -6 11 -70 22 -211 10 -110
10 -369 0 -700 -12 -387 -10 -531 9 -629 1 -9 6 -51 10 -94 3 -43 8 -87 10
-97 2 -10 7 -51 10 -91 4 -40 8 -81 10 -91 2 -9 6 -48 10 -85 3 -37 8 -81 10
-98 5 -35 14 -208 20 -410 2 -77 6 -151 9 -165 3 -14 7 -73 10 -131 3 -59 10
-129 17 -155 6 -27 12 -56 14 -64 2 -8 22 -70 44 -138 22 -68 42 -150 45 -184
8 -86 16 -127 34 -176 l15 -43 17 38 c42 97 38 92 40 48 2 -45 1 -46 43 65
l25 65 1 -77 c0 -66 4 -84 30 -134 17 -31 31 -63 31 -71 0 -7 4 -21 9 -31 5
-9 15 -33 22 -51 7 -19 25 -49 40 -65 14 -17 33 -44 41 -60 l15 -29 8 39 c5
21 10 46 11 54 10 50 44 173 48 178 3 3 6 -15 6 -39 1 -87 11 -225 20 -259 5
-22 8 -27 9 -14 2 34 33 124 43 124 5 0 22 -13 38 -29 17 -16 44 -31 66 -34
20 -4 47 -16 59 -27 l22 -21 52 80 c28 44 55 91 60 104 5 13 30 43 55 67 110
105 177 277 183 471 4 149 14 204 35 203 10 -1 15 6 15 20 -1 20 3 55 24 221
10 82 15 152 23 310 3 50 12 109 20 132 15 44 21 93 32 268 3 55 8 111 11 125
4 14 7 243 8 510 1 267 5 519 8 560 4 41 9 107 12 145 3 39 8 84 10 100 20
144 28 700 11 800 -4 28 -10 156 -11 285 -3 214 -8 309 -19 365 -6 33 -20 187
-19 225 0 43 11 202 20 290 9 92 9 447 1 560 -15 185 -59 387 -109 497 -10 24
-19 47 -19 51 0 33 -116 174 -164 199 -25 13 -131 34 -139 27z"/>
</g>
</svg>
